<?xml version="1.0" encoding="utf-8"?>
<!-- Generator: Adobe Illustrator 22.0.1, SVG Export Plug-In . SVG Version: 6.00 Build 0)  -->
<svg version="1.1" id="Layer_1" xmlns="http://www.w3.org/2000/svg" xmlns:xlink="http://www.w3.org/1999/xlink" x="0px" y="0px"
	 viewBox="0 0 70 70" style="enable-background:new 0 0 70 70;" xml:space="preserve">
<style type="text/css">
	.st0{fill:#222222;}
</style>
<g>
	<path class="st0" d="M31.8,0.7c2-0.9,4.4-0.9,6.4,0l29.9,13.8c1.2,0.5,1.9,1.7,1.9,3s-0.7,2.4-1.9,3L38.2,34.3
		c-2,0.9-4.4,0.9-6.4,0L1.9,20.5c-1.2-0.5-1.9-1.7-1.9-3s0.7-2.4,1.9-3L31.8,0.7z M60.8,28.7l7.3,3.4c1.2,0.5,1.9,1.7,1.9,3
		c0,1.3-0.7,2.4-1.9,3L38.2,51.8c-2,0.9-4.4,0.9-6.4,0L1.9,38C0.7,37.4,0,36.3,0,35c0-1.3,0.7-2.4,1.9-3l7.3-3.4L30,38.3
		c3.2,1.5,6.9,1.5,10.1,0L60.8,28.7z M40,55.8l20.8-9.6l7.3,3.4c1.2,0.5,1.9,1.7,1.9,3s-0.7,2.4-1.9,3L38.2,69.3
		c-2,0.9-4.4,0.9-6.4,0L1.9,55.5c-1.2-0.5-1.9-1.7-1.9-3s0.7-2.4,1.9-3l7.3-3.4L30,55.8C33.2,57.2,36.8,57.2,40,55.8z"/>
</g>
</svg>
