<?xml version="1.0" encoding="utf-8"?>
<!-- Generator: Adobe Illustrator 22.0.1, SVG Export Plug-In . SVG Version: 6.00 Build 0)  -->
<svg version="1.1" id="Layer_1" xmlns="http://www.w3.org/2000/svg" xmlns:xlink="http://www.w3.org/1999/xlink" x="0px" y="0px"
	 viewBox="0 0 70 70" style="enable-background:new 0 0 70 70;" xml:space="preserve">
<g>
	<path d="M62.2,3.9H7.8C3.5,3.9,0,7.4,0,11.7v35c0,4.3,3.5,7.8,7.8,7.8h21.4l-1.3,3.9h-8.4c-2.2,0-3.9,1.7-3.9,3.9
		c0,2.2,1.7,3.9,3.9,3.9h31.1c2.2,0,3.9-1.7,3.9-3.9c0-2.2-1.7-3.9-3.9-3.9h-8.4l-1.3-3.9h21.4c4.3,0,7.8-3.5,7.8-7.8v-35
		C70,7.4,66.5,3.9,62.2,3.9z M62.2,46.7H7.8v-35h54.4V46.7z"/>
	<path d="M14.8,27.7h15.1c1.4,0,2.6-1.2,2.6-2.6v-6c0-1.4-1.2-2.6-2.6-2.6H14.8c-1.4,0-2.6,1.2-2.6,2.6v6
		C12.2,26.5,13.3,27.7,14.8,27.7z"/>
	<path d="M39.8,27.7h15.1c1.4,0,2.6-1.2,2.6-2.6v-6c0-1.4-1.2-2.6-2.6-2.6H39.8c-1.4,0-2.6,1.2-2.6,2.6v6
		C37.2,26.5,38.4,27.7,39.8,27.7z"/>
	<path d="M14.8,42.7h15.1c1.4,0,2.6-1.2,2.6-2.6v-6c0-1.4-1.2-2.6-2.6-2.6H14.8c-1.4,0-2.6,1.2-2.6,2.6v6
		C12.2,41.5,13.3,42.7,14.8,42.7z"/>
	<path d="M39.8,42.7h15.1c1.4,0,2.6-1.2,2.6-2.6v-6c0-1.4-1.2-2.6-2.6-2.6H39.8c-1.4,0-2.6,1.2-2.6,2.6v6
		C37.2,41.5,38.4,42.7,39.8,42.7z"/>
</g>
</svg>
