<?xml version="1.0" encoding="utf-8"?>
<!-- Generator: Adobe Illustrator 22.0.1, SVG Export Plug-In . SVG Version: 6.00 Build 0)  -->
<svg version="1.1" id="Layer_1" xmlns="http://www.w3.org/2000/svg" xmlns:xlink="http://www.w3.org/1999/xlink" x="0px" y="0px"
	 viewBox="0 0 70 70" style="enable-background:new 0 0 70 70;" xml:space="preserve">
<path d="M50.2,52.8c-3.6,0-6.5,2.9-6.5,6.5c0,3.6,2.9,6.5,6.5,6.5c3.6,0,6.5-2.9,6.5-6.5C56.7,55.7,53.8,52.8,50.2,52.8z"/>
<path d="M68.9,14H13L12,9.7c-0.8-3.3-3.7-5.5-7.1-5.5H1.1C0.5,4.2,0,4.7,0,5.3c0,0.6,0.5,1.1,1.1,1.1h3.8c2.3,0,4.4,1.6,4.9,3.9
	l7.6,31.1c0.8,3.3,3.7,5.6,7.1,5.6H57c3.4,0,6.3-2.3,7.1-5.7L70,15.4c0.1-0.3,0-0.7-0.2-0.9C69.6,14.2,69.2,14,68.9,14z"/>
<path d="M29.1,52.8c-3.6,0-6.5,2.9-6.5,6.5c0,3.6,2.9,6.5,6.5,6.5c3.6,0,6.5-2.9,6.5-6.5C35.6,55.7,32.7,52.8,29.1,52.8z"/>
</svg>
